<svg xmlns="http://www.w3.org/2000/svg" xmlns:xlink="http://www.w3.org/1999/xlink" xmlns:svgjs="http://svgjs.dev/svgjs" version="1.1" viewBox="12.55 15.79 89.66 93.57"><g transform="matrix(0.8046875,0,0,0.8046875,5.858715173713506,13.088731577779413)"><svg xmlns="http://www.w3.org/2000/svg" xmlns:xlink="http://www.w3.org/1999/xlink" viewBox="0 0 105 101" data-background-color="#ffffff" preserveAspectRatio="xMidYMid meet" height="123" width="128"><g id="tight-bounds" transform="matrix(1,0,0,1,6.770241813204677,2.7589213068183938)"><svg viewBox="0 0 91.4949895568107 95.481" height="95.481" width="91.4949895568107"><g><svg viewBox="0 0 91.4949895568107 95.481" height="95.481" width="91.4949895568107"><g><svg viewBox="0 0 91.4949895568107 95.481" height="95.481" width="91.4949895568107"><g id="textblocktransform"><svg viewBox="0 0 91.4949895568107 95.481" height="95.481" width="91.4949895568107" id="textblock"><g><svg viewBox="0 0 91.4949895568107 95.481" height="95.481" width="91.4949895568107"><g><svg viewBox="0 0 91.4949895568107 95.481" height="95.481" width="91.4949895568107"><g><svg xmlns="http://www.w3.org/2000/svg" data-name="Layer 1" viewBox="6.8696213195616025 4.971299686092829 86.29780720724919 90.057400627814" x="0" y="0" height="95.481" width="91.4949895568107" class="icon-icon-0" data-fill-palette-color="accent" id="icon-0"><path class="cls-1" d="M63.7 17.624a1.363 1.363 0 1 1-1.054-2.514l4.333-1.817a40.036 40.036 0 0 0-4.781-1.85 40.425 40.425 0 0 0-42.513 65.3 1.362 1.362 0 1 1-2.045 1.8A43.165 43.165 0 0 1 67.545 10.562l-1.54-3.671A1.364 1.364 0 1 1 68.52 5.836l2.955 7.048a1.363 1.363 0 0 1-0.729 1.785L63.7 17.624ZM75.213 33.013l-8.226-8.226a0.433 0.433 0 0 0-0.6 0L63.971 27.2h0a1.361 1.361 0 0 1-1.618 0.23 25.96 25.96 0 0 0-5.014-2.094A1.363 1.363 0 0 1 56.245 24V20.588a0.434 0.434 0 0 0-0.429-0.428H44.183a0.434 0.434 0 0 0-0.428 0.428V24h0a1.362 1.362 0 0 1-0.981 1.3 25.723 25.723 0 0 0-5.052 2.087 1.362 1.362 0 0 1-1.689-0.191l-2.411-2.41a0.433 0.433 0 0 0-0.605 0l-8.226 8.226a0.433 0.433 0 0 0 0 0.605l2.41 2.411h0a1.361 1.361 0 0 1 0.23 1.618 25.96 25.96 0 0 0-2.094 5.014A1.363 1.363 0 0 1 24 43.755H20.588a0.434 0.434 0 0 0-0.428 0.428V55.816a0.434 0.434 0 0 0 0.428 0.429H24v0a1.36 1.36 0 0 1 1.3 0.981 25.748 25.748 0 0 0 2.087 5.051 1.364 1.364 0 0 1-0.191 1.69l-2.41 2.41a0.435 0.435 0 0 0 0 0.606l8.226 8.226a0.433 0.433 0 0 0 0.605 0l2.411-2.41h0a1.363 1.363 0 0 1 1.618-0.231 25.5 25.5 0 0 0 2.5 1.2 25.815 25.815 0 0 0 2.509 0.893A1.363 1.363 0 0 1 43.755 76v3.408a0.434 0.434 0 0 0 0.428 0.428H55.816a0.434 0.434 0 0 0 0.429-0.428V76h0A1.36 1.36 0 0 1 57.23 74.7a25.748 25.748 0 0 0 5.051-2.087 1.364 1.364 0 0 1 1.69 0.191l2.41 2.41a0.435 0.435 0 0 0 0.606 0l8.226-8.226a0.433 0.433 0 0 0 0-0.6L72.8 63.971h0a1.363 1.363 0 0 1-0.231-1.618 25.794 25.794 0 0 0 2.094-5.014A1.365 1.365 0 0 1 76 56.245h3.408a0.434 0.434 0 0 0 0.428-0.429V44.183a0.434 0.434 0 0 0-0.428-0.428H76v0A1.362 1.362 0 0 1 74.7 42.77a25.791 25.791 0 0 0-2.087-5.052 1.363 1.363 0 0 1 0.19-1.689l2.411-2.411a0.433 0.433 0 0 0 0-0.605ZM50 35.226a14.8 14.8 0 1 0 5.649 1.125A14.759 14.759 0 0 0 50 35.226ZM42.075 51.367l5.782 4.546a1.362 1.362 0 0 0 1.912-0.229l0.009-0.011 8.333-9.626a1.359 1.359 0 0 0-2.056-1.779l-7.534 8.7-4.763-3.745a1.362 1.362 0 0 0-1.683 2.142ZM80.318 23.253a40.445 40.445 0 0 1-42.513 65.3 40.1 40.1 0 0 1-4.781-1.849l4.333-1.817A1.363 1.363 0 1 0 36.3 82.376l-7.048 2.955a1.363 1.363 0 0 0-0.729 1.785l2.955 7.048a1.364 1.364 0 1 0 2.515-1.055l-1.54-3.671A43.156 43.156 0 0 0 82.363 21.453a1.362 1.362 0 1 0-2.045 1.8Z" fill-rule="evenodd" fill="#56ab2f" data-fill-palette-color="accent"/></svg></g></svg></g></svg></g></svg></g></svg></g></svg></g><defs/></svg><rect width="91.4949895568107" height="95.481" fill="none" stroke="none" visibility="hidden"/></g></svg></g></svg>